# Blender v2.79 (sub 0) OBJ File: ''
# www.blender.org
mtllib jeg_lowpoly.mtl
o Standard_Drop
v -6.389473 99.147667 -196.590363
v 23.952908 139.444534 -200.574600
v -5.736173 138.895218 -218.312408
v 2.703477 165.817001 -199.249008
v -19.729826 137.334961 -211.646042
v -27.480768 137.778366 -194.525894
v -8.595662 163.354645 -196.934799
v -6.659611 166.012436 -188.366440
v -17.266428 137.480835 -171.965073
v -4.180642 139.030655 -167.309921
v 0.546358 164.156189 -184.611908
v 9.010737 134.772339 -166.536453
v 18.069206 138.897446 -175.496384
v 25.000414 137.466080 -186.081802
v 5.650632 164.550629 -188.105911
v 6.556288 165.374039 -194.912537
v -4.800823 163.375290 -200.578644
v -0.761237 182.798065 -192.819977
v 28.532232 125.675880 -200.050110
v 18.287951 122.904541 -216.484238
v 3.083996 125.844383 -222.632278
v 11.798825 136.221283 -217.317078
v -10.584023 124.812096 -221.150421
v -24.633493 124.844688 -211.738907
v -31.107121 124.701225 -189.027039
v -25.464567 134.475845 -179.561417
v -8.302855 127.830673 -163.917480
v 27.015556 124.711075 -180.335236
v 17.998310 125.174179 -168.752045
v 26.190811 113.954605 -192.817734
v 22.502964 113.259804 -206.491913
v 0.513358 110.334549 -217.937531
v -14.483217 110.183846 -213.942276
v -26.136106 111.372894 -187.484619
v -22.099871 121.361099 -171.849533
v 4.974490 118.161385 -164.415573
v 19.337328 104.528343 -193.134125
v -25.634481 111.223671 -199.767838
v -8.569229 111.177040 -168.144836
v 20.069664 109.648239 -180.092010
v 10.875386 104.904396 -209.345978
v 0.462403 102.022530 -208.946472
v -9.654230 102.608192 -207.298721
v -15.776598 103.535538 -181.566483
v 8.876078 106.763199 -172.720688
v 9.418612 101.838158 -180.378250
v 11.340457 100.327354 -195.718826
v -16.756048 102.227592 -195.986710
v -4.777040 101.645569 -178.172180
v 4.945643 99.115028 -196.270386
v -3.944485 99.014290 -187.349365
vt 0.224962 0.391516
vt 0.290143 0.136352
vt 0.333255 0.118870
vt 0.113630 0.321829
vt 0.422332 0.706202
vt 0.580247 0.889339
vt 0.392139 0.776523
vt 0.637792 0.861184
vt 0.497029 0.620132
vt 0.582973 0.615617
vt 0.665155 0.620183
vt 0.500880 0.174681
vt 0.615821 0.370547
vt 0.574785 0.376753
vt 0.412395 0.199418
vt 0.583596 0.127680
vt 0.663005 0.340837
vt 0.670650 0.124070
vt 0.280385 0.796605
vt 0.225206 0.830327
vt 0.211564 0.768086
vt 0.235152 0.484036
vt 0.325374 0.393251
vt 0.321928 0.473709
vt 0.127173 0.436392
vt 0.041257 0.381950
vt 0.051766 0.256737
vt 0.005617 0.311448
vt 0.239837 0.138518
vt 0.211150 0.129030
vt 0.403306 0.608653
vt 0.395593 0.255554
vt 0.345203 0.208108
vt 0.716589 0.720008
vt 0.812193 0.764997
vt 0.752414 0.801303
vt 0.368135 0.137810
vt 0.426093 0.101434
vt 0.521231 0.050980
vt 0.072596 0.560532
vt 0.155539 0.585243
vt 0.070095 0.652764
vt 0.083970 0.484647
vt 0.892319 0.029263
vt 0.987125 0.093902
vt 0.874181 0.110688
vt 0.725910 0.600267
vt 0.815594 0.652899
vt 0.205170 0.537650
vt 0.016608 0.719531
vt 0.094345 0.748809
vt 0.933670 0.221976
vt 0.801188 0.216589
vt 0.801201 0.515690
vt 0.869596 0.556687
vt 0.837390 0.832461
vt 0.917730 0.738969
vt 0.937760 0.793766
vt 0.262549 0.595961
vt 0.185648 0.652124
vt 0.731717 0.270611
vt 0.696362 0.199070
vt 0.742193 0.160305
vt 0.912884 0.623765
vt 0.294015 0.692295
vt 0.731015 0.077465
vt 0.788113 0.070310
vt 0.954046 0.687434
vt 0.191540 0.718385
vt 0.124814 0.817813
vt 0.314726 0.762967
vt 0.675225 0.816484
vt 0.344853 0.001321
vt 0.690426 0.990002
vt 0.620520 0.933550
vt 0.684607 0.501558
vt 0.644410 0.034047
vt 0.345203 0.697090
vt 0.530365 0.535369
vt 0.644455 0.543764
vt 0.355391 0.735847
vt 0.011330 0.616400
vt 0.862637 0.307735
vt 0.412645 0.530440
vt 0.448047 0.510405
vt 0.036962 0.789862
vt 0.300780 0.561775
vt 0.795657 0.018254
vt 0.954153 0.754983
vt 0.708053 0.144419
vt 0.743317 0.043020
vt 0.946787 0.583305
vn 0.4435 0.4054 -0.7993
vn 0.3879 0.4941 -0.7781
vn 0.8311 0.5103 -0.2211
vn -0.1786 0.4540 -0.8729
vn -0.9025 0.4202 -0.0947
vn -0.7619 0.5399 -0.3579
vn -0.6563 0.4222 -0.6253
vn -0.6830 0.5239 0.5090
vn -0.8283 0.3388 0.4462
vn -0.5546 0.4114 0.7233
vn -0.1153 0.4644 0.8781
vn 0.6525 0.4651 0.5983
vn 0.7012 0.5160 0.4920
vn 0.1011 0.5329 0.8401
vn 0.3013 0.3420 0.8901
vn 0.8839 0.4120 0.2211
vn 0.8387 0.4472 -0.3109
vn -0.0844 -0.9863 0.1421
vn -0.1539 -0.9824 -0.1056
vn 0.1234 -0.9881 -0.0919
vn 0.6290 -0.0902 -0.7721
vn 0.9687 0.0347 -0.2458
vn 0.1279 0.0028 -0.9918
vn -0.3367 -0.0269 -0.9412
vn -0.8009 -0.0213 -0.5984
vn -0.3050 0.5219 -0.7966
vn -0.9946 -0.0255 0.1003
vn -0.2459 0.0800 0.9660
vn 0.1850 -0.2640 0.9466
vn 0.6131 -0.0317 0.7894
vn 0.9193 -0.0290 0.3924
vn 0.9094 -0.4156 0.0170
vn 0.7567 -0.4676 -0.4568
vn 0.0586 -0.5276 -0.8475
vn -0.8227 -0.5262 0.2152
vn -0.8177 -0.5090 -0.2689
vn -0.7017 -0.1700 0.6919
vn -0.2683 -0.5227 0.8092
vn 0.4053 -0.7320 -0.5476
vn -0.4661 -0.5493 -0.6936
vn -0.4972 -0.7835 0.3728
vn 0.3119 -0.6522 0.6909
vn 0.6992 -0.5613 0.4428
vn 0.6503 -0.7595 -0.0172
vn 0.0351 -0.8713 -0.4895
vn -0.3051 -0.8396 -0.4494
vn -0.1094 -0.8722 0.4768
vn 0.3078 -0.8832 0.3538
vn -0.5065 -0.8555 -0.1080
vn 0.3491 -0.9321 -0.0970
vn -0.0002 1.0000 0.0040
usemtl Material.004
s 1
f 22/1/1 4/2/2 16/3/3
f 3/4/4 4/2/2 22/1/1
f 6/5/5 7/6/6 5/7/7
f 6/5/5 8/8/8 7/6/6
f 26/9/9 8/8/8 6/5/5
f 9/10/10 8/8/8 26/9/9
f 10/11/11 8/8/8 9/10/10
f 13/12/12 15/13/13 11/14/14
f 13/12/12 11/14/14 12/15/15
f 14/16/16 16/17/3 15/13/13
f 2/18/17 16/17/3 14/16/16
f 51/19/18 1/20/19 50/21/20
f 20/22/21 2/23/17 19/24/22
f 21/25/23 3/4/4 22/1/1
f 23/26/24 5/27/7 3/4/4
f 24/28/25 5/27/7 23/26/24
f 17/29/26 3/4/4 5/27/7 7/30/6
f 26/9/9 6/5/5 25/31/27
f 12/15/15 10/32/11 27/33/28
f 27/34/28 36/35/29 12/36/15
f 12/15/15 36/37/29 29/38/30
f 13/12/12 28/39/31 14/16/16
f 19/40/22 30/41/32 31/42/33
f 20/22/21 32/43/34 21/25/23
f 34/44/35 25/45/27 38/46/36
f 27/34/28 35/47/37 39/48/38
f 36/35/29 27/34/28 39/48/38
f 28/49/31 30/41/32 19/40/22
f 20/50/21 31/42/33 41/51/39
f 38/46/36 24/52/25 33/53/40
f 35/47/37 34/54/35 44/55/41
f 29/56/30 36/35/29 45/57/42
f 40/58/43 29/56/30 45/57/42
f 30/41/32 28/49/31 40/59/43
f 30/41/32 40/59/43 37/60/44
f 32/61/34 42/62/45 43/63/46
f 39/48/38 44/55/41 49/64/47
f 36/35/29 39/48/38 45/57/42
f 46/65/48 37/60/44 40/59/43
f 43/63/46 1/66/19 48/67/49
f 45/57/42 49/64/47 46/68/48
f 47/69/50 37/60/44 46/65/48
f 42/70/45 50/21/20 1/20/19
f 49/71/47 51/19/18 46/65/48
f 47/69/50 46/65/48 50/21/20
f 46/65/48 51/19/18 50/21/20
f 2/23/17 22/1/1 16/3/3
f 3/4/4 17/29/26 4/2/2
f 48/67/49 38/46/36 33/53/40 43/63/46
f 10/11/11 11/72/14 8/8/8
f 10/32/11 12/15/15 11/14/14
f 13/12/12 14/16/16 15/13/13
f 16/3/3 4/2/2 18/73/51
f 4/2/2 17/29/26 18/73/51
f 18/74/51 17/75/26 7/6/6
f 18/74/51 7/6/6 8/8/8
f 18/74/51 8/8/8 11/72/14
f 11/14/14 15/13/13 18/76/51
f 15/13/13 16/17/3 18/76/51
f 19/77/22 2/18/17 14/16/16
f 22/1/1 20/22/21 21/25/23
f 21/25/23 23/26/24 3/4/4
f 24/78/25 25/31/27 6/5/5
f 26/9/9 35/79/37 9/10/10
f 26/9/9 25/31/27 35/79/37
f 35/79/37 27/80/28 9/10/10
f 28/39/31 19/77/22 14/16/16
f 2/23/17 20/22/21 22/1/1
f 5/7/7 24/81/25 6/5/5
f 9/10/10 27/80/28 10/11/11
f 12/15/15 29/38/30 13/12/12
f 29/38/30 28/39/31 13/12/12
f 20/82/21 19/40/22 31/42/33
f 23/83/24 32/61/34 33/53/40
f 23/26/24 21/25/23 32/43/34
f 24/52/25 23/83/24 33/53/40
f 38/46/36 25/45/27 24/52/25
f 25/31/27 34/84/35 35/85/37
f 31/42/33 30/41/32 37/60/44
f 32/86/34 20/50/21 41/51/39
f 39/48/38 35/47/37 44/55/41
f 28/49/31 29/87/30 40/59/43
f 41/51/39 31/42/33 37/60/44
f 42/70/45 32/86/34 41/51/39
f 33/53/40 32/61/34 43/63/46
f 34/44/35 48/67/49 44/88/41
f 34/44/35 38/46/36 48/67/49
f 45/57/42 39/48/38 49/64/47
f 46/89/48 40/58/43 45/57/42
f 41/51/39 37/60/44 47/69/50
f 42/70/45 41/51/39 47/69/50
f 42/70/45 47/69/50 50/21/20
f 1/66/19 43/63/46 42/90/45
f 48/67/49 1/66/19 51/91/18
f 51/91/18 44/88/41 48/67/49
f 51/92/18 49/64/47 44/55/41
