# Blender v2.79 (sub 0) OBJ File: ''
# www.blender.org
mtllib rain_lowpoly.mtl
o Standard_Drop
v 15.464207 127.449615 -219.600311
v -0.667448 177.546951 -192.990814
v -4.493505 128.218521 -223.560669
v -31.609068 129.640640 -190.989410
v -23.845316 128.576462 -213.262695
v -24.248177 128.058472 -172.520340
v -7.541050 131.229935 -163.859009
v 14.911119 126.886696 -165.084656
v 28.047564 128.828598 -182.182053
v 28.375296 129.752151 -200.898529
v -4.989153 97.316536 -197.135834
v 24.073944 108.882812 -197.530655
v 4.292655 104.429436 -213.705414
v -27.065706 110.385269 -193.824661
v -10.693810 104.591232 -173.549438
v -12.774662 106.279030 -211.879227
v 13.304935 104.010201 -177.190964
vt 0.087841 0.394106
vt 0.257256 0.103590
vt 0.231382 0.449806
vt 0.409834 0.642124
vt 0.613230 0.891321
vt 0.365663 0.747218
vt 0.534975 0.569734
vt 0.649970 0.564124
vt 0.651540 0.058510
vt 0.621580 0.399533
vt 0.540290 0.074420
vt 0.083970 0.484647
vt 0.716589 0.720008
vt 0.725910 0.600267
vt 0.860329 0.612875
vt 0.799439 0.802297
vt 0.205170 0.537650
vt 0.140009 0.632105
vt 0.072596 0.560532
vt 0.016608 0.719531
vt 0.082142 0.781879
vt 0.883012 0.071043
vt 0.933670 0.221976
vt 0.776834 0.193354
vt 0.801201 0.515690
vt 0.285118 0.665058
vt 0.937844 0.760816
vt 0.234509 0.790113
vt 0.314726 0.762967
vt 0.322864 0.451845
vt 0.763059 0.066037
vt 0.358628 0.220749
vt 0.414873 0.144459
vt 0.011330 0.616400
vt 0.862637 0.307735
vt 0.708913 0.224466
vt 0.987125 0.093902
vt 0.412645 0.530440
vt 0.448047 0.510405
vt 0.300780 0.561775
vt 0.795657 0.018254
vt 0.708053 0.144419
vt 0.018517 0.296154
vn -0.1359 0.0973 -0.9859
vn 0.0032 1.0000 -0.0058
vn 0.5405 0.0612 -0.8391
vn -0.9849 0.1684 0.0401
vn -0.7451 0.1090 -0.6580
vn -0.7440 0.0624 0.6653
vn -0.1979 0.1610 0.9669
vn 0.9410 0.1658 -0.2949
vn 0.9289 0.1065 0.3547
vn 0.2215 -0.7150 -0.6631
vn -0.3124 -0.7039 0.6380
vn 0.4640 0.0256 0.8855
vn 0.7764 -0.6095 -0.1605
vn -0.8287 -0.5593 -0.0217
vn -0.4393 -0.6395 -0.6310
vn 0.4418 -0.7472 0.4966
vn -0.1049 -0.9913 -0.0800
usemtl Material.004
s 1
f 3/1/1 2/2/2 1/3/3
f 4/4/4 2/5/2 5/6/5
f 6/7/6 2/5/2 4/4/4
f 7/8/7 2/5/2 6/7/6
f 10/9/8 2/10/2 9/11/9
f 1/3/3 13/12/10 3/1/1
f 7/13/7 6/14/6 15/15/11
f 8/16/12 7/13/7 15/15/11
f 9/17/9 12/18/13 10/19/8
f 1/20/3 12/18/13 13/21/10
f 14/22/14 5/23/5 16/24/15
f 6/14/6 14/25/14 15/15/11
f 12/18/13 9/17/9 17/26/16
f 8/16/12 15/15/11 17/27/16
f 11/28/17 12/18/13 17/26/16
f 15/29/11 11/28/17 17/26/16
f 10/30/8 1/3/3 2/2/2
f 14/22/14 16/24/15 11/31/17
f 7/32/7 8/33/12 2/10/2
f 8/33/12 9/11/9 2/10/2
f 1/34/3 10/19/8 12/18/13
f 3/35/1 13/36/10 16/24/15
f 5/23/5 3/35/1 16/24/15
f 14/22/14 4/37/4 5/23/5
f 4/4/4 14/38/14 6/39/6
f 9/17/9 8/40/12 17/26/16
f 14/22/14 11/31/17 15/41/11
f 13/21/10 12/18/13 11/28/17
f 11/31/17 16/24/15 13/42/10
f 2/2/2 3/1/1 5/43/5
