# Blender v2.79 (sub 0) OBJ File: ''
# www.blender.org
mtllib stone_lowpoly.mtl
o pCube1
v -0.325275 0.038812 -0.177639
v -0.402227 -0.037579 0.507723
v -0.407580 0.029823 0.592337
v -0.288183 0.568251 0.319765
v -0.407456 0.397317 -0.209693
v 0.191976 0.485288 0.398402
v 0.044125 0.681832 -0.018180
v -0.215038 0.547272 -0.439091
v 0.193252 0.582636 -0.254624
v -0.176187 0.160815 -0.387420
v 0.397275 0.123515 0.007621
v 0.105097 0.123494 -0.250513
v -0.026237 -0.077497 -0.013039
v 0.325474 -0.041656 0.344852
v 0.384724 0.312800 -0.059864
v 0.439119 0.363048 0.190588
v -0.400091 0.240831 -0.365130
v -0.482235 0.035444 0.554086
v 0.203010 0.316363 -0.271102
vt 0.296055 0.216328
vt 0.176640 0.084517
vt 0.300161 0.020309
vt 0.664531 0.469298
vt 0.534048 0.719975
vt 0.469456 0.716876
vt 0.265460 0.802799
vt 0.381780 0.646189
vt 0.415233 0.680820
vt 0.219377 0.817187
vt 0.230521 0.714585
vt 0.664945 0.701205
vt 0.574741 0.272235
vt 0.572419 0.053306
vt 0.590043 0.011264
vt 0.968554 0.843245
vt 0.904263 0.572598
vt 0.996800 0.665700
vt 0.453679 0.396294
vt 0.588639 0.414221
vt 0.478948 0.840353
vt 0.051130 0.809308
vt 0.025900 0.837700
vt 0.009027 0.807209
vt 0.747959 0.296119
vt 0.048894 0.590849
vt 0.149764 0.586301
vt 0.138604 0.762026
vt 0.768218 0.442994
vt 0.842551 0.461367
vt 0.765835 0.532906
vt 0.092330 0.213760
vt 0.174793 0.372139
vt 0.053153 0.387310
vt 0.037841 0.176122
vt 0.155300 0.451800
vt 0.172729 0.462619
vt 0.095362 0.110629
vt 0.174761 0.235885
vt 0.278583 0.368225
vt 0.171111 0.024778
vt 0.750554 0.697639
vt 0.161324 0.444609
vt 0.423505 0.639045
vt 0.199450 0.455544
vt 0.426687 0.219379
vn 0.0320 -0.9499 -0.3110
vn 0.8111 -0.4681 -0.3507
vn 0.6101 -0.6439 0.4617
vn -0.8131 -0.1822 0.5529
vn -0.8983 0.4199 -0.1295
vn -0.7304 -0.1936 -0.6551
vn -0.3001 -0.9076 0.2935
vn -0.4913 -0.7875 -0.3722
vn -0.4713 0.7597 0.4480
vn -0.2078 -0.2260 0.9517
vn 0.4181 0.5379 0.7320
vn -0.2475 0.5591 -0.7913
vn 0.1422 0.9895 0.0246
vn 0.9272 0.2965 0.2287
vn 0.5650 0.6143 -0.5507
vn 0.5836 -0.1263 -0.8021
vn 0.0524 -0.5399 -0.8401
vn 0.8939 0.0945 -0.4383
vn 0.3820 -0.6060 -0.6978
usemtl lambert3
s 1
f 13/1/1 11/2/2 14/3/3
f 18/4/4 5/5/5 17/6/6
f 17/7/6 2/8/7 18/9/4
f 1/10/8 13/11/1 2/8/7
f 2/8/7 17/7/6 1/10/8
f 5/5/5 18/4/4 4/12/9
f 4/13/9 18/14/4 3/15/10
f 3/16/10 6/17/11 4/18/9
f 8/19/12 4/13/9 7/20/13
f 8/21/12 5/5/5 4/12/9
f 6/22/11 16/23/14 7/24/13
f 6/25/11 7/20/13 4/13/9
f 7/26/13 9/27/15 8/28/12
f 9/29/15 7/30/13 16/31/14
f 19/32/16 10/33/17 8/34/12
f 9/35/15 19/32/16 8/34/12
f 9/27/15 16/36/14 15/37/18
f 9/35/15 15/38/18 19/32/16
f 19/32/16 12/39/19 10/33/17
f 10/33/17 12/39/19 1/40/8
f 1/40/8 12/39/19 13/1/1
f 11/2/2 16/41/14 14/3/3
f 11/2/2 15/38/18 16/41/14
f 14/42/3 16/31/14 6/17/11
f 14/42/3 6/17/11 3/16/10
f 17/43/6 8/34/12 10/33/17
f 1/40/8 17/43/6 10/33/17
f 17/6/6 5/5/5 8/21/12
f 11/2/2 12/39/19 19/32/16
f 2/8/7 3/44/10 18/9/4
f 3/44/10 2/8/7 14/45/3
f 2/46/7 13/1/1 14/3/3
f 11/2/2 19/32/16 15/38/18
f 13/1/1 12/39/19 11/2/2
